{
	"asset":{
		"generator":"Khronos glTF Blender I/O v3.6.27",
		"version":"2.0"
	},
	"scene":0,
	"scenes":[
		{
			"name":"Scene",
			"nodes":[
				0
			]
		}
	],
	"nodes":[
		{
			"mesh":0,
			"name":"Brazier",
			"rotation":[
				-1,
				0,
				0,
				4.371138828673793e-08
			],
			"translation":[
				0.08570265769958496,
				1.665252685546875,
				-0.9083817005157471
			]
		}
	],
	"meshes":[
		{
			"name":"Cone",
			"primitives":[
				{
					"attributes":{
						"POSITION":0,
						"NORMAL":1,
						"TEXCOORD_0":2
					},
					"indices":3
				}
			]
		}
	],
	"accessors":[
		{
			"bufferView":0,
			"componentType":5126,
			"count":260,
			"max":[
				0.9025205969810486,
				-0.5017487406730652,
				0.9025256037712097
			],
			"min":[
				-0.9025219082832336,
				-1.0002130270004272,
				-0.902266800403595
			],
			"type":"VEC3"
		},
		{
			"bufferView":1,
			"componentType":5126,
			"count":260,
			"type":"VEC3"
		},
		{
			"bufferView":2,
			"componentType":5126,
			"count":260,
			"type":"VEC2"
		},
		{
			"bufferView":3,
			"componentType":5123,
			"count":378,
			"type":"SCALAR"
		}
	],
	"bufferViews":[
		{
			"buffer":0,
			"byteLength":3120,
			"byteOffset":0,
			"target":34962
		},
		{
			"buffer":0,
			"byteLength":3120,
			"byteOffset":3120,
			"target":34962
		},
		{
			"buffer":0,
			"byteLength":2080,
			"byteOffset":6240,
			"target":34962
		},
		{
			"buffer":0,
			"byteLength":756,
			"byteOffset":8320,
			"target":34963
		}
	],
	"buffers":[
		{
			"byteLength":9076,
			"uri":"data:application/octet-stream;base64,"
		}
	]
}
