{
	"asset":{
		"generator":"Khronos glTF Blender I/O v3.6.27",
		"version":"2.0"
	},
	"scene":0,
	"scenes":[
		{
			"name":"Scene",
			"nodes":[
				0,
				1,
				2,
				3,
				4,
				5
			]
		}
	],
	"nodes":[
		{
			"mesh":0,
			"name":"NorthernWall"
		},
		{
			"mesh":1,
			"name":"EasternWall"
		},
		{
			"mesh":2,
			"name":"SouthernWall"
		},
		{
			"mesh":3,
			"name":"WesternWall"
		},
		{
			"mesh":4,
			"name":"Ceiling"
		},
		{
			"mesh":5,
			"name":"Floor",
			"translation":[
				0,
				-1,
				0
			]
		}
	],
	"materials":[
		{
			"doubleSided":true,
			"name":"Doors",
			"pbrMetallicRoughness":{
				"baseColorFactor":[
					0.060674455016851425,
					0.07905613631010056,
					0.15735070407390594,
					1
				],
				"metallicFactor":0,
				"roughnessFactor":0.5
			}
		},
		{
			"doubleSided":true,
			"name":"Ceiling",
			"pbrMetallicRoughness":{
				"baseColorFactor":[
					0.17064490914344788,
					0.19558167457580566,
					0.32481202483177185,
					1
				],
				"metallicFactor":0,
				"roughnessFactor":0.5
			}
		},
		{
			"doubleSided":true,
			"name":"Floor",
			"pbrMetallicRoughness":{
				"baseColorFactor":[
					0.058008551597595215,
					0.06293788552284241,
					0.09028488397598267,
					1
				],
				"metallicFactor":0,
				"roughnessFactor":0.5
			}
		}
	],
	"meshes":[
		{
			"name":"Cube.004",
			"primitives":[
				{
					"attributes":{
						"POSITION":0,
						"NORMAL":1,
						"TEXCOORD_0":2
					},
					"indices":3,
					"material":0
				}
			]
		},
		{
			"name":"Cube.005",
			"primitives":[
				{
					"attributes":{
						"POSITION":4,
						"NORMAL":5,
						"TEXCOORD_0":6
					},
					"indices":7,
					"material":0
				}
			]
		},
		{
			"name":"Cube.006",
			"primitives":[
				{
					"attributes":{
						"POSITION":8,
						"NORMAL":9,
						"TEXCOORD_0":10
					},
					"indices":11,
					"material":0
				}
			]
		},
		{
			"name":"Cube.007",
			"primitives":[
				{
					"attributes":{
						"POSITION":12,
						"NORMAL":13,
						"TEXCOORD_0":14
					},
					"indices":15,
					"material":0
				}
			]
		},
		{
			"name":"Cube.008",
			"primitives":[
				{
					"attributes":{
						"POSITION":16,
						"NORMAL":17,
						"TEXCOORD_0":18
					},
					"indices":19,
					"material":1
				}
			]
		},
		{
			"name":"Cube.009",
			"primitives":[
				{
					"attributes":{
						"POSITION":20,
						"NORMAL":21,
						"TEXCOORD_0":22
					},
					"indices":19,
					"material":2
				}
			]
		}
	],
	"accessors":[
		{
			"bufferView":0,
			"componentType":5126,
			"count":48,
			"max":[
				0.5,
				4,
				-0.5
			],
			"min":[
				-0.5,
				0,
				-1.5
			],
			"type":"VEC3"
		},
		{
			"bufferView":1,
			"componentType":5126,
			"count":48,
			"type":"VEC3"
		},
		{
			"bufferView":2,
			"componentType":5126,
			"count":48,
			"type":"VEC2"
		},
		{
			"bufferView":3,
			"componentType":5123,
			"count":108,
			"type":"SCALAR"
		},
		{
			"bufferView":4,
			"componentType":5126,
			"count":66,
			"max":[
				1.5,
				4,
				0.5
			],
			"min":[
				0.5,
				0,
				-0.5
			],
			"type":"VEC3"
		},
		{
			"bufferView":5,
			"componentType":5126,
			"count":66,
			"type":"VEC3"
		},
		{
			"bufferView":6,
			"componentType":5126,
			"count":66,
			"type":"VEC2"
		},
		{
			"bufferView":7,
			"componentType":5123,
			"count":132,
			"type":"SCALAR"
		},
		{
			"bufferView":8,
			"componentType":5126,
			"count":48,
			"max":[
				0.5,
				4,
				1.5
			],
			"min":[
				-0.5,
				0,
				0.5
			],
			"type":"VEC3"
		},
		{
			"bufferView":9,
			"componentType":5126,
			"count":48,
			"type":"VEC3"
		},
		{
			"bufferView":10,
			"componentType":5126,
			"count":48,
			"type":"VEC2"
		},
		{
			"bufferView":11,
			"componentType":5123,
			"count":108,
			"type":"SCALAR"
		},
		{
			"bufferView":12,
			"componentType":5126,
			"count":56,
			"max":[
				-0.5,
				4,
				0.5
			],
			"min":[
				-1.5,
				0,
				-0.5
			],
			"type":"VEC3"
		},
		{
			"bufferView":13,
			"componentType":5126,
			"count":56,
			"type":"VEC3"
		},
		{
			"bufferView":14,
			"componentType":5126,
			"count":56,
			"type":"VEC2"
		},
		{
			"bufferView":15,
			"componentType":5123,
			"count":132,
			"type":"SCALAR"
		},
		{
			"bufferView":16,
			"componentType":5126,
			"count":24,
			"max":[
				0.5,
				5,
				0.5
			],
			"min":[
				-0.5,
				4,
				-0.5
			],
			"type":"VEC3"
		},
		{
			"bufferView":17,
			"componentType":5126,
			"count":24,
			"type":"VEC3"
		},
		{
			"bufferView":18,
			"componentType":5126,
			"count":24,
			"type":"VEC2"
		},
		{
			"bufferView":19,
			"componentType":5123,
			"count":36,
			"type":"SCALAR"
		},
		{
			"bufferView":20,
			"componentType":5126,
			"count":24,
			"max":[
				0.5,
				1,
				0.5
			],
			"min":[
				-0.5,
				0,
				-0.5
			],
			"type":"VEC3"
		},
		{
			"bufferView":21,
			"componentType":5126,
			"count":24,
			"type":"VEC3"
		},
		{
			"bufferView":22,
			"componentType":5126,
			"count":24,
			"type":"VEC2"
		}
	],
	"bufferViews":[
		{
			"buffer":0,
			"byteLength":576,
			"byteOffset":0,
			"target":34962
		},
		{
			"buffer":0,
			"byteLength":576,
			"byteOffset":576,
			"target":34962
		},
		{
			"buffer":0,
			"byteLength":384,
			"byteOffset":1152,
			"target":34962
		},
		{
			"buffer":0,
			"byteLength":216,
			"byteOffset":1536,
			"target":34963
		},
		{
			"buffer":0,
			"byteLength":792,
			"byteOffset":1752,
			"target":34962
		},
		{
			"buffer":0,
			"byteLength":792,
			"byteOffset":2544,
			"target":34962
		},
		{
			"buffer":0,
			"byteLength":528,
			"byteOffset":3336,
			"target":34962
		},
		{
			"buffer":0,
			"byteLength":264,
			"byteOffset":3864,
			"target":34963
		},
		{
			"buffer":0,
			"byteLength":576,
			"byteOffset":4128,
			"target":34962
		},
		{
			"buffer":0,
			"byteLength":576,
			"byteOffset":4704,
			"target":34962
		},
		{
			"buffer":0,
			"byteLength":384,
			"byteOffset":5280,
			"target":34962
		},
		{
			"buffer":0,
			"byteLength":216,
			"byteOffset":5664,
			"target":34963
		},
		{
			"buffer":0,
			"byteLength":672,
			"byteOffset":5880,
			"target":34962
		},
		{
			"buffer":0,
			"byteLength":672,
			"byteOffset":6552,
			"target":34962
		},
		{
			"buffer":0,
			"byteLength":448,
			"byteOffset":7224,
			"target":34962
		},
		{
			"buffer":0,
			"byteLength":264,
			"byteOffset":7672,
			"target":34963
		},
		{
			"buffer":0,
			"byteLength":288,
			"byteOffset":7936,
			"target":34962
		},
		{
			"buffer":0,
			"byteLength":288,
			"byteOffset":8224,
			"target":34962
		},
		{
			"buffer":0,
			"byteLength":192,
			"byteOffset":8512,
			"target":34962
		},
		{
			"buffer":0,
			"byteLength":72,
			"byteOffset":8704,
			"target":34963
		},
		{
			"buffer":0,
			"byteLength":288,
			"byteOffset":8776,
			"target":34962
		},
		{
			"buffer":0,
			"byteLength":288,
			"byteOffset":9064,
			"target":34962
		},
		{
			"buffer":0,
			"byteLength":192,
			"byteOffset":9352,
			"target":34962
		}
	],
	"buffers":[
		{
			"byteLength":9544,
			"uri":"data:application/octet-stream;base64,"
		}
	]
}
